<svg width="1280" height="720" xmlns="http://www.w3.org/2000/svg" xmlns:xlink="http://www.w3.org/1999/xlink" overflow="hidden"><defs><filter id="fx0" x="-10%" y="-10%" width="120%" height="120%" filterUnits="userSpaceOnUse" primitiveUnits="userSpaceOnUse"><feComponentTransfer color-interpolation-filters="sRGB"><feFuncR type="discrete" tableValues="0.74902 0.74902"/><feFuncG type="discrete" tableValues="0.74902 0.74902"/><feFuncB type="discrete" tableValues="0.74902 0.74902"/><feFuncA type="linear" slope="0.4" intercept="0"/></feComponentTransfer><feGaussianBlur stdDeviation="6.66667 6.66667"/></filter><filter id="fx1" x="-10%" y="-10%" width="120%" height="120%" filterUnits="userSpaceOnUse" primitiveUnits="userSpaceOnUse"><feComponentTransfer color-interpolation-filters="sRGB"><feFuncR type="discrete" tableValues="0.74902 0.74902"/><feFuncG type="discrete" tableValues="0.74902 0.74902"/><feFuncB type="discrete" tableValues="0.74902 0.74902"/><feFuncA type="linear" slope="0.4" intercept="0"/></feComponentTransfer><feGaussianBlur stdDeviation="6.66667 6.66667"/></filter><filter id="fx2" x="-10%" y="-10%" width="120%" height="120%" filterUnits="userSpaceOnUse" primitiveUnits="userSpaceOnUse"><feComponentTransfer color-interpolation-filters="sRGB"><feFuncR type="discrete" tableValues="0.74902 0.74902"/><feFuncG type="discrete" tableValues="0.74902 0.74902"/><feFuncB type="discrete" tableValues="0.74902 0.74902"/><feFuncA type="linear" slope="0.4" intercept="0"/></feComponentTransfer><feGaussianBlur stdDeviation="6.66667 6.66667"/></filter><filter id="fx3" x="-10%" y="-10%" width="120%" height="120%" filterUnits="userSpaceOnUse" primitiveUnits="userSpaceOnUse"><feComponentTransfer color-interpolation-filters="sRGB"><feFuncR type="discrete" tableValues="0.74902 0.74902"/><feFuncG type="discrete" tableValues="0.74902 0.74902"/><feFuncB type="discrete" tableValues="0.74902 0.74902"/><feFuncA type="linear" slope="0.4" intercept="0"/></feComponentTransfer><feGaussianBlur stdDeviation="6.66667 6.66667"/></filter><filter id="fx4" x="-10%" y="-10%" width="120%" height="120%" filterUnits="userSpaceOnUse" primitiveUnits="userSpaceOnUse"><feComponentTransfer color-interpolation-filters="sRGB"><feFuncR type="discrete" tableValues="0.74902 0.74902"/><feFuncG type="discrete" tableValues="0.74902 0.74902"/><feFuncB type="discrete" tableValues="0.74902 0.74902"/><feFuncA type="linear" slope="0.4" intercept="0"/></feComponentTransfer><feGaussianBlur stdDeviation="6.66667 6.66667"/></filter><filter id="fx5" x="-10%" y="-10%" width="120%" height="120%" filterUnits="userSpaceOnUse" primitiveUnits="userSpaceOnUse"><feComponentTransfer color-interpolation-filters="sRGB"><feFuncR type="discrete" tableValues="0.74902 0.74902"/><feFuncG type="discrete" tableValues="0.74902 0.74902"/><feFuncB type="discrete" tableValues="0.74902 0.74902"/><feFuncA type="linear" slope="0.4" intercept="0"/></feComponentTransfer><feGaussianBlur stdDeviation="6.66667 6.66667"/></filter><clipPath id="clip6"><rect x="0" y="0" width="1280" height="720"/></clipPath><clipPath id="clip7"><rect x="-3" y="-3" width="304" height="185"/></clipPath><clipPath id="clip8"><rect x="0" y="0" width="296" height="179"/></clipPath><linearGradient x1="121.759" y1="70.3741" x2="236.241" y2="282.626" gradientUnits="userSpaceOnUse" spreadMethod="reflect" id="fill9"><stop offset="0" stop-color="#EDEEF3"/><stop offset="1" stop-color="#EDEEF3"/></linearGradient><clipPath id="clip10"><rect x="-3" y="-3" width="304" height="185"/></clipPath><clipPath id="clip11"><rect x="0" y="0" width="296" height="179"/></clipPath><linearGradient x1="434.759" y1="69.3741" x2="549.241" y2="281.626" gradientUnits="userSpaceOnUse" spreadMethod="reflect" id="fill12"><stop offset="0" stop-color="#EDEEF3"/><stop offset="1" stop-color="#EDEEF3"/></linearGradient><clipPath id="clip13"><rect x="-3" y="-3" width="304" height="185"/></clipPath><clipPath id="clip14"><rect x="0" y="0" width="296" height="179"/></clipPath><linearGradient x1="747.759" y1="70.3741" x2="862.241" y2="282.626" gradientUnits="userSpaceOnUse" spreadMethod="reflect" id="fill15"><stop offset="0" stop-color="#EDEEF3"/><stop offset="1" stop-color="#EDEEF3"/></linearGradient><clipPath id="clip16"><rect x="-3" y="-3" width="304" height="185"/></clipPath><clipPath id="clip17"><rect x="0" y="0" width="296" height="179"/></clipPath><linearGradient x1="1060.76" y1="70.3741" x2="1175.24" y2="282.626" gradientUnits="userSpaceOnUse" spreadMethod="reflect" id="fill18"><stop offset="0" stop-color="#EDEEF3"/><stop offset="1" stop-color="#EDEEF3"/></linearGradient><clipPath id="clip19"><rect x="-3" y="-3" width="782" height="471"/></clipPath><clipPath id="clip20"><rect x="0" y="0" width="775" height="464"/></clipPath><linearGradient x1="696.028" y1="167.052" x2="1060.97" y2="800.948" gradientUnits="userSpaceOnUse" spreadMethod="reflect" id="fill21"><stop offset="0" stop-color="#EDEEF3"/><stop offset="1" stop-color="#EDEEF3"/></linearGradient><clipPath id="clip22"><rect x="-3" y="-3" width="471" height="471"/></clipPath><clipPath id="clip23"><rect x="0" y="0" width="463" height="465"/></clipPath><linearGradient x1="48.0024" y1="273.002" x2="470.998" y2="693.998" gradientUnits="userSpaceOnUse" spreadMethod="reflect" id="fill24"><stop offset="0" stop-color="#EDEEF3"/><stop offset="1" stop-color="#EDEEF3"/></linearGradient><clipPath id="clip25"><rect x="706" y="146" width="45" height="45"/></clipPath><clipPath id="clip26"><rect x="706" y="146" width="45" height="45"/></clipPath><clipPath id="clip27"><rect x="706" y="146" width="45" height="45"/></clipPath><clipPath id="clip28"><rect x="80" y="147" width="45" height="45"/></clipPath><clipPath id="clip29"><rect x="80" y="147" width="45" height="45"/></clipPath><clipPath id="clip30"><rect x="80" y="147" width="45" height="45"/></clipPath><clipPath id="clip31"><rect x="393" y="147" width="45" height="45"/></clipPath><clipPath id="clip32"><rect x="393" y="147" width="45" height="45"/></clipPath><clipPath id="clip33"><rect x="393" y="147" width="45" height="45"/></clipPath><clipPath id="clip34"><rect x="1016" y="148" width="46" height="45"/></clipPath><clipPath id="clip35"><rect x="1016" y="148" width="46" height="45"/></clipPath><clipPath id="clip36"><rect x="1016" y="148" width="46" height="45"/></clipPath></defs><g clip-path="url(#clip6)"><rect x="0" y="0" width="1280" height="720" fill="#FFFFFF"/><rect x="0" y="0" width="1280" height="720" fill="#F3F4F7"/><g clip-path="url(#clip7)" filter="url(#fx0)" transform="translate(45 101)"><g clip-path="url(#clip8)"><path d="M21.1421 43.976C21.1421 31.3652 31.3652 21.1421 43.976 21.1421L252.308 21.1421C264.919 21.1421 275.142 31.3652 275.142 43.976L275.142 135.308C275.142 147.919 264.919 158.142 252.308 158.142L43.976 158.142C31.3652 158.142 21.1421 147.919 21.1421 135.308Z" fill="#FF0000" fill-rule="evenodd"/></g></g><path d="M52 130.834C52 118.223 62.2231 108 74.8339 108L283.166 108C295.777 108 306 118.223 306 130.834L306 222.166C306 234.777 295.777 245 283.166 245L74.8339 245C62.2231 245 52 234.777 52 222.166Z" fill="url(#fill9)" fill-rule="evenodd"/><g clip-path="url(#clip10)" filter="url(#fx1)" transform="translate(358 100)"><g clip-path="url(#clip11)"><path d="M21.1422 43.976C21.1422 31.3652 31.3652 21.1421 43.976 21.1421L252.308 21.1421C264.919 21.1421 275.142 31.3652 275.142 43.976L275.142 135.308C275.142 147.919 264.919 158.142 252.308 158.142L43.976 158.142C31.3652 158.142 21.1422 147.919 21.1422 135.308Z" fill="#FF0000" fill-rule="evenodd"/></g></g><path d="M365 129.834C365 117.223 375.223 107 387.834 107L596.166 107C608.777 107 619 117.223 619 129.834L619 221.166C619 233.777 608.777 244 596.166 244L387.834 244C375.223 244 365 233.777 365 221.166Z" fill="url(#fill12)" fill-rule="evenodd"/><g clip-path="url(#clip13)" filter="url(#fx2)" transform="translate(671 101)"><g clip-path="url(#clip14)"><path d="M21.1422 43.976C21.1422 31.3652 31.3652 21.1421 43.976 21.1421L252.308 21.1421C264.919 21.1421 275.142 31.3652 275.142 43.976L275.142 135.308C275.142 147.919 264.919 158.142 252.308 158.142L43.976 158.142C31.3652 158.142 21.1422 147.919 21.1422 135.308Z" fill="#FF0000" fill-rule="evenodd"/></g></g><path d="M678 130.834C678 118.223 688.223 108 700.834 108L909.166 108C921.777 108 932 118.223 932 130.834L932 222.166C932 234.777 921.777 245 909.166 245L700.834 245C688.223 245 678 234.777 678 222.166Z" fill="url(#fill15)" fill-rule="evenodd"/><g clip-path="url(#clip16)" filter="url(#fx3)" transform="translate(984 101)"><g clip-path="url(#clip17)"><path d="M21.1422 43.976C21.1422 31.3652 31.3652 21.1421 43.976 21.1421L252.308 21.1421C264.919 21.1421 275.142 31.3652 275.142 43.976L275.142 135.308C275.142 147.919 264.919 158.142 252.308 158.142L43.976 158.142C31.3652 158.142 21.1422 147.919 21.1422 135.308Z" fill="#FF0000" fill-rule="evenodd"/></g></g><path d="M991 130.834C991 118.223 1001.22 108 1013.83 108L1222.17 108C1234.78 108 1245 118.223 1245 130.834L1245 222.166C1245 234.777 1234.78 245 1222.17 245L1013.83 245C1001.22 245 991 234.777 991 222.166Z" fill="url(#fill18)" fill-rule="evenodd"/><g clip-path="url(#clip19)" filter="url(#fx4)" transform="translate(505 266)"><g clip-path="url(#clip20)"><path d="M21.1422 38.7898C21.1422 29.0433 29.0433 21.1422 38.7898 21.1422L736.495 21.1422C746.241 21.1422 754.142 29.0433 754.142 38.7898L754.142 425.494C754.142 435.241 746.241 443.142 736.495 443.142L38.7898 443.142C29.0433 443.142 21.1422 435.241 21.1422 425.494Z" fill="#FF0000" fill-rule="evenodd"/></g></g><path d="M512 290.648C512 280.901 519.901 273 529.648 273L1227.35 273C1237.1 273 1245 280.901 1245 290.648L1245 677.352C1245 687.099 1237.1 695 1227.35 695L529.648 695C519.901 695 512 687.099 512 677.352Z" fill="url(#fill21)" fill-rule="evenodd"/><g clip-path="url(#clip22)" filter="url(#fx5)" transform="translate(42 265)"><g clip-path="url(#clip23)"><path d="M21.1421 38.7482C21.1421 29.0246 29.0246 21.1422 38.7482 21.1422L424.536 21.1422C434.26 21.1422 442.142 29.0246 442.142 38.7482L442.142 426.536C442.142 436.26 434.26 444.142 424.536 444.142L38.7482 444.142C29.0246 444.142 21.1421 436.26 21.1421 426.536Z" fill="#FF0000" fill-rule="evenodd"/></g></g><path d="M49 289.606C49 279.882 56.8825 272 66.606 272L452.394 272C462.117 272 470 279.882 470 289.606L470 677.394C470 687.117 462.117 695 452.394 695L66.606 695C56.8825 695 49 687.117 49 677.394Z" fill="url(#fill24)" fill-rule="evenodd"/><g clip-path="url(#clip25)"><g clip-path="url(#clip26)"><g clip-path="url(#clip27)"><path d="M724.516 166.906C724.516 169.236 722.627 171.125 720.297 171.125 717.967 171.125 716.078 169.236 716.078 166.906 716.078 164.576 717.967 162.688 720.297 162.688 722.627 162.688 724.516 164.576 724.516 166.906Z"/><path d="M739.984 187.25 739.984 183.031C740.002 182.363 739.685 181.731 739.141 181.344 737.926 180.393 736.518 179.721 735.016 179.375 733.889 179.036 732.723 178.847 731.547 178.812 730.368 178.816 729.198 179.006 728.078 179.375 726.597 179.78 725.2 180.447 723.953 181.344 723.424 181.744 723.112 182.368 723.109 183.031L723.109 187.25Z"/><path d="M735.766 173.469C735.766 175.799 733.877 177.688 731.547 177.688 729.217 177.688 727.328 175.799 727.328 173.469 727.328 171.139 729.217 169.25 731.547 169.25 733.877 169.25 735.766 171.139 735.766 173.469Z"/><path d="M722.828 179.844 722.828 179.844C724.144 178.904 725.599 178.177 727.141 177.688 726.075 176.577 725.471 175.102 725.453 173.562L725.453 173.375C724.905 173.146 724.341 172.958 723.766 172.812 722.639 172.474 721.473 172.285 720.297 172.25 719.118 172.254 717.948 172.443 716.828 172.812 715.362 173.258 713.971 173.921 712.703 174.781 712.158 175.168 711.842 175.801 711.859 176.469L711.859 180.688 721.984 180.688C722.217 180.361 722.502 180.076 722.828 179.844Z"/><path d="M744.133 149.75 726.428 149.75C725.886 149.755 725.451 150.197 725.453 150.739L725.453 162.809C725.443 163.353 725.875 163.802 726.419 163.812 726.422 163.812 726.425 163.812 726.428 163.812L729.241 163.812 729.241 167.769 733.127 163.812 744.133 163.812C744.675 163.807 745.112 163.366 745.112 162.823L745.112 150.739C745.113 150.196 744.675 149.755 744.133 149.75ZM735.198 162.055C734.624 162.055 734.158 161.589 734.158 161.014 734.158 160.439 734.624 159.973 735.199 159.973 735.768 159.973 736.231 160.431 736.239 161 736.249 161.572 735.794 162.044 735.222 162.055 735.214 162.055 735.206 162.055 735.198 162.055ZM735.869 157.766 735.869 159.242 734.533 159.242 734.533 156.481 735.198 156.481C736.361 156.481 737.111 155.802 737.111 154.756 737.129 153.721 736.305 152.867 735.269 152.848 735.246 152.848 735.222 152.848 735.198 152.848 734.234 152.759 733.38 153.468 733.291 154.432 733.281 154.54 733.281 154.648 733.291 154.756L733.291 154.873 731.955 154.873 731.955 154.756C731.853 153.064 733.144 151.609 734.836 151.508 734.957 151.501 735.078 151.501 735.198 151.508 736.972 151.487 738.426 152.908 738.447 154.681 738.447 154.706 738.447 154.731 738.447 154.756 738.492 156.274 737.376 157.578 735.869 157.766Z"/></g></g></g><g clip-path="url(#clip28)"><g clip-path="url(#clip29)"><g clip-path="url(#clip30)"><path d="M115.625 153.562 118.438 153.562 118.438 185.438 86.5625 185.438 86.5625 182.625 115.625 182.625Z"/><path d="M89.3281 172.734 95 167.062 97.8125 169.875 102.5 165.188 105.312 168 111.828 161.484 113.797 163.453 105.312 171.938 102.5 169.125 97.8125 173.812 95 171 91.2969 174.703 94.0625 177.469 86.5625 177.469 86.5625 169.969Z"/></g></g></g><g clip-path="url(#clip31)"><g clip-path="url(#clip32)"><g clip-path="url(#clip33)"><path d="M402.375 153.094 399.562 153.094 399.562 185.906 431.906 185.906 431.906 183.094 402.375 183.094 402.375 153.094Z"/><path d="M431.906 180.281 424.875 180.281 424.875 153.094 431.906 153.094Z"/><path d="M422.062 180.281 415.031 180.281 415.031 162.469 422.062 162.469Z"/><path d="M412.219 180.281 405.188 180.281 405.188 170.906 412.219 170.906Z"/><path d="M420.188 159.534 420.188 153.094 413.747 153.094 416.306 155.653 404.995 166.964 406.317 168.286 417.628 156.98 420.188 159.534Z"/></g></g></g><g clip-path="url(#clip34)"><g clip-path="url(#clip35)"><g clip-path="url(#clip36)"><path d="M21.5625 4.6875C12.1875 5.15625 4.6875 13.0312 4.6875 22.5 4.6875 32.3438 12.6562 40.3125 22.5 40.3125 26.9531 40.3125 31.125 38.7188 34.4062 35.7188L21.5625 22.875 21.5625 4.6875Z" transform="matrix(1.02222 0 0 1 1016 148)"/><path d="M23.4375 4.6875 23.4375 21.5625 40.2656 21.5625C39.7969 12.4219 32.5312 5.15625 23.4375 4.6875Z" transform="matrix(1.02222 0 0 1 1016 148)"/><path d="M24.75 23.4375 35.7188 34.4062C38.4844 31.3594 40.0781 27.5156 40.2656 23.4375L24.75 23.4375Z" transform="matrix(1.02222 0 0 1 1016 148)"/></g></g></g></g></svg>